<svg width="292" height="292" viewBox="0 0 292 292" fill="none" xmlns="http://www.w3.org/2000/svg">
<circle cx="146" cy="146" r="145" fill="#F5CAC3" stroke="#F28482" stroke-width="2"/>
<path d="M125 109.5C125 116.985 123.619 123.713 121.428 128.532C119.197 133.441 116.319 136 113.5 136C110.681 136 107.803 133.441 105.572 128.532C103.381 123.713 102 116.985 102 109.5C102 102.015 103.381 95.2875 105.572 90.4684C107.803 85.559 110.681 83 113.5 83C116.319 83 119.197 85.559 121.428 90.4684C123.619 95.2875 125 102.015 125 109.5Z" fill="#F7EDE2" stroke="#F28482" stroke-width="2"/>
<path d="M190 109.5C190 116.985 188.619 123.713 186.428 128.532C184.197 133.441 181.319 136 178.5 136C175.681 136 172.803 133.441 170.572 128.532C168.381 123.713 167 116.985 167 109.5C167 102.015 168.381 95.2875 170.572 90.4684C172.803 85.559 175.681 83 178.5 83C181.319 83 184.197 85.559 186.428 90.4684C188.619 95.2875 190 102.015 190 109.5Z" fill="#F7EDE2" stroke="#F28482" stroke-width="2"/>
<mask id="path-4-inside-1_1_21" fill="white">
<path fill-rule="evenodd" clip-rule="evenodd" d="M54 174C60.6787 209.652 99.3247 237 146 237C192.675 237 231.321 209.652 238 174H54Z"/>
</mask>
<path fill-rule="evenodd" clip-rule="evenodd" d="M54 174C60.6787 209.652 99.3247 237 146 237C192.675 237 231.321 209.652 238 174H54Z" fill="#F7EDE2"/>
<path d="M54 174V172H51.5906L52.0342 174.368L54 174ZM238 174L239.966 174.368L240.409 172H238V174ZM146 235C99.9674 235 62.4143 208.055 55.9658 173.632L52.0342 174.368C58.9431 211.249 98.6821 239 146 239V235ZM236.034 173.632C229.586 208.055 192.033 235 146 235V239C193.318 239 233.057 211.249 239.966 174.368L236.034 173.632ZM238 172H54V176H238V172Z" fill="#F28482" mask="url(#path-4-inside-1_1_21)"/>
</svg>
